PathFileType	4	(X/Y/Z)	pose_F01_0-76.trc
DataRate	CameraRate	NumFrames	NumMarkers	Units	OrigDataRate	OrigDataStartFrame	OrigNumFrames
30	30	6	21	m	30	65	76
Frame#	Time	CHip			RHip			RKnee			RAnkle			RBigToe			RSmallToe			RHeel			LHip			LKnee			LAnkle			LBigToe			LSmallToe			LHeel			Neck			Nose			RShoulder			RElbow			RWrist			LShoulder			LElbow			LWrist			
		X1	Y1	Z1	X2	Y2	Z2	X3	Y3	Z3	X4	Y4	Z4	X5	Y5	Z5	X6	Y6	Z6	X7	Y7	Z7	X8	Y8	Z8	X9	Y9	Z9	X10	Y10	Z10	X11	Y11	Z11	X12	Y12	Z12	X13	Y13	Z13	X14	Y14	Z14	X15	Y15	Z15	X16	Y16	Z16	X17	Y17	Z17	X18	Y18	Z18	X19	Y19	Z19	X20	Y20	Z20	X21	Y21	Z21	
65	2.1666666666666665	-0.15018324817433584	1.8367167271733935	-0.6340998892394971	-0.16586411336787482	1.8351238586589245	-0.5787983373277483	-0.1710282223989586	1.7237316943457086	-0.5647455849843	-0.17117587761483158	1.6152783771321835	-0.5486596489172494	-0.19397225924889958	1.5792967787898593	-0.538009264653206				-0.16613685592150698	1.6135825674588515	-0.5544317479231886	-0.1313947719284244	1.838974027188177	-0.6917388542087421	-0.13775468321617598	1.7322497906435557	-0.673950812040038	-0.12941775730072344	1.6268867118437536	-0.6669061389282424	-0.1492899286325534	1.594786142755122	-0.6725786091227374	-0.13644152748687163	1.6024100190493842	-0.6943623602135168	-0.1251281926823424	1.6161018905341857	-0.6619383774505759	-0.14655617001021065	1.9800465492782007	-0.6501347455330848	-0.17407117067235958	2.0185266584203063	-0.6573127101126299	-1.7037129193726268	1.8889909767899624	1.1315572239647083	-0.1706330336235401	1.9086508826891517	-0.5140694223195003	-0.17692776906458393	1.89343607339405	-0.5790006493119334	-0.12174019841201274	1.9841519460256285	-0.7405359395930021	-0.09817587548358715	1.914358291592541	-0.7816618795725118	-0.14104422113057474	1.912417302317571	-0.7191592780987615
66	2.2	-0.15004347579656682	1.8378332935455135	-0.6344999966919219	-0.16590333472222615	1.8348603704059403	-0.5788383078315997	-0.17136209205767242	1.7237771233382997	-0.5646901454567363	-0.16675305311756752	1.6198674192397953	-0.5543422973940636	-0.1853069469342503	1.5918168079373436	-0.5449385390118903				-0.16277124295286466	1.6172326409344835	-0.5627034299871811	-0.1330144533359797	1.839841445091126	-0.6982006677314325	-0.13192842637069463	1.728997343629341	-0.6798104302253514	-0.12955170092336876	1.6245996291637625	-0.6666337797951066	-0.15196672973543046	1.5944871807556031	-0.669436242375766	-0.13869647283826916	1.6022158122782526	-0.692023832010578	-0.12301643828730999	1.6162963088918962	-0.6643154096080853	-1.4674942844555214	1.8887456008252155	0.7699464882670076	-0.1727443593460889	2.017375734686506	-0.652784084309863	-0.16935775864710795	1.9738392552112671	-0.5620146725585766	-0.17057364372855152	1.905464825241783	-0.5219921151258603	-0.18785359491715956	1.881822821916072	-0.5949684760673796	-1.2416069988538339	1.8937173425161233	0.43512060897015487	-1.0390628679402356	1.8384332094597058	0.18319187318397157	-0.14210567793041648	1.8911639128917943	-0.7193018097607988
67	2.2333333333333334	-0.14768732667931597	1.8382678010967783	-0.6369870017384062	-0.1636023016023236	1.8358566252660127	-0.5813499115462154	-0.16820335182285903	1.7283129395146493	-0.5727297871960627	-0.16443731475226056	1.6189792400292053	-0.5565840451823871	-0.1811961671882385	1.5917879965011517	-0.5402089964606517				-0.1583154661909131	1.6159226502610466	-0.567157379767211	-0.1318348770471279	1.8411469845930217	-0.6954806623808053	-0.1335441268876938	1.7313135019505663	-0.6782240737048872	-0.12945432590008438	1.6243961561303433	-0.6666590543738172	-0.14949522820667546	1.595894207551767	-0.672311450083621	-0.1386477835355009	1.6022417969592626	-0.6920710623822149	-0.12311696942384222	1.614503618265477	-0.6638012625634883	-1.4645450770040855	1.8890535494283487	0.7665804032826065	-0.17185587916873346	2.021734600446068	-0.6502833375154956	-0.16729138225340126	1.9762363241495777	-0.5646323710281249	-0.1679500951089764	1.9107860634593141	-0.5246611498976027	-0.19105330098644188	1.8751582923276957	-0.5686563475686303	-0.12235050288335236	1.9852519112847582	-0.7433744818387796	-1.0241697856746337	1.8375400949817837	0.16185757135254522	-0.13315663602978117	1.8722081214681094	-0.7376947934579753
68	2.2666666666666666	-0.1499926452982698	1.8409519186829961	-0.6348917488906534	-0.16371400855692583	1.8370083381619708	-0.5814590444205925	-0.16678584031875507	1.7250588232663442	-0.5695817708541511	-0.16513807210704404	1.6174072958844279	-0.5552930482476369	-0.1853889864679445	1.5893050097734134	-0.5350124315371513				-0.1577507841372415	1.614996786282809	-0.5632752519358174	-0.13419889302141122	1.8433947844878	-0.6932978429203019	-0.1338282845700997	1.730206494531746	-0.6778483681719915	-0.1296466337251639	1.625759839514936	-0.6665089407658349	-0.14977670772038232	1.594564204735257	-0.6716865566959165	-0.13948781269402508	1.602272249324341	-0.6951597915376506	-0.12099683780091293	1.6149040251991147	-0.6661409044766946	-1.4653350226636552	1.8910730298229765	0.7679820516883905	-0.1696508984448232	2.025946299536656	-0.6533512979991725	-0.16915527323861967	1.976243380380938	-0.5619939610979954	-0.16711479503134472	1.9076561612257024	-0.5210960840877933	-0.19621096271972902	1.8659389018937553	-0.5480612805284052	-0.12244494578264092	1.9848518446515957	-0.7432626164953005	-1.0339330307073338	1.8387778208782397	0.17302844839173315	-0.12561071755542755	1.8571135464105293	-0.760616157347141
69	2.3	-0.15016716646914302	1.8432312374770232	-0.63476460061294	-0.16577260818016895	1.8417340247259044	-0.5795526625807526	-0.16596383633344758	1.7251894323685784	-0.5663305057808098	-0.16542534112072727	1.6191216767346837	-0.5551320301589493	-0.18560729385174546	1.5903609577420261	-0.5351342838013292				-0.15778348367113418	1.6152353844943979	-0.5633499596762475	-0.1335924224745013	1.8451907788997217	-0.6901502217014929	-0.13621762056507095	1.7317250384851928	-0.6755413780599049	-0.12769934349652529	1.6272401949416373	-0.6686731910088081	-0.15168267284174713	1.5959741859011611	-0.6699358122470345	-0.13876788205537025	1.602315411182071	-0.6919689290234785	-0.11964080563163393	1.6152104306059232	-0.6716149685286795	-1.4678499116762873	1.8914139910936354	0.7706652617282157	-0.16830034009170622	2.0265399448413177	-0.6586790842015772	-0.16912398036469858	1.9786867671691137	-0.5623187013283814	-0.17114221280275346	1.911091043583058	-0.5170994833094925	-0.19523057703846566	1.8556898605138183	-0.5137328061312387	-0.12455161305984931	1.9845328057272138	-0.7409719377375668	-1.04839247849245	1.8377031664704082	0.19310687465584656	-0.11573525584745224	1.8511403960461243	-0.7866987524149954
70	2.3333333333333335	-0.14974298021418814	1.8420575616549264	-0.6347954630258992	-0.1645464982065015	1.841356828382497	-0.5763541159228729	-0.16569047568370904	1.7266691583224936	-0.5665310394240506	-0.16575355976155287	1.620895498161647	-0.5547638850041148	-0.1829978920310727	1.5905288037190426	-0.5377734828862689				-0.15984571498202996	1.6152117563349109	-0.5608455288922898	-0.1311376192960173	1.8419648792246717	-0.6921975317883041	-0.13614148237522625	1.730149255955263	-0.6753946958060525	-0.12584302673680292	1.630198809835384	-0.6752089758139331	-0.14832069300538378	1.6004108082841946	-0.6698552514456276	-0.13817179283776254	1.6050378092086106	-0.6930153124405469	-0.11725176565586373	1.6200064977213295	-0.6749840067979027	-1.4701886076479886	1.891007448202114	0.7731567818332027	-0.16710019131262976	2.0272521350971324	-0.6644949341349654	-1.6993877760369518	1.8893363039068132	1.1262663240845654	-0.17530639456688676	1.9082614227620869	-0.5120081936252597	-0.1888574090682853	1.8440362779842783	-0.4534352820319806	-1.2432231948174066	1.8963168880278305	0.4367983762222307	-0.10754277835475794	1.9114152507002657	-0.7836469424288584	-0.11085951097978365	1.845779300602658	-0.806020193190391
